<svg width="31" height="31" viewBox="0 0 31 31" fill="none" xmlns="http://www.w3.org/2000/svg">
<path d="M21.4856 0.435547H9.53063C7.19468 0.438292 4.95521 1.36756 3.30358 3.01947C1.65195 4.67138 0.723056 6.911 0.720703 9.24695L0.720703 21.2019C0.723448 23.5379 1.65272 25.7773 3.30463 27.4289C4.95653 29.0806 7.19616 30.0095 9.53211 30.0118H21.4871C23.823 30.0091 26.0625 29.0798 27.7141 27.4279C29.3657 25.776 30.2946 23.5364 30.297 21.2004V9.24547C30.2942 6.90952 29.365 4.67005 27.7131 3.01842C26.0612 1.36679 23.8215 0.437899 21.4856 0.435547ZM27.3223 21.2004C27.3223 21.9669 27.1713 22.7259 26.878 23.434C26.5847 24.1422 26.1548 24.7856 25.6128 25.3276C25.0708 25.8696 24.4273 26.2995 23.7192 26.5929C23.0111 26.8862 22.2521 27.0372 21.4856 27.0372H9.53063C7.98288 27.0368 6.49867 26.4217 5.40439 25.3271C4.3101 24.2325 3.69537 22.7482 3.69537 21.2004V9.24547C3.69576 7.69773 4.31087 6.21351 5.40543 5.11923C6.49999 4.02495 7.98436 3.41021 9.53211 3.41021H21.4871C23.0348 3.4106 24.519 4.02572 25.6133 5.12028C26.7076 6.21484 27.3223 7.69921 27.3223 9.24695V21.2004Z" fill="white"/>
<path d="M15.5079 7.5752C13.4804 7.57833 11.537 8.38521 10.1035 9.81894C8.67008 11.2527 7.86358 13.1963 7.86084 15.2237C7.86319 17.2516 8.66972 19.1958 10.1035 20.6299C11.5374 22.064 13.4814 22.8709 15.5093 22.8737C17.5375 22.8713 19.482 22.0646 20.9161 20.6305C22.3502 19.1963 23.157 17.2519 23.1593 15.2237C23.1562 13.1958 22.3489 11.2519 20.9145 9.81833C19.4801 8.38479 17.5358 7.57864 15.5079 7.57668V7.5752ZM15.5079 19.899C14.2683 19.899 13.0795 19.4066 12.203 18.5301C11.3264 17.6536 10.834 16.4648 10.834 15.2252C10.834 13.9856 11.3264 12.7968 12.203 11.9203C13.0795 11.0438 14.2683 10.5513 15.5079 10.5513C16.7474 10.5513 17.9362 11.0438 18.8128 11.9203C19.6893 12.7968 20.1817 13.9856 20.1817 15.2252C20.1817 16.4648 19.6893 17.6536 18.8128 18.5301C17.9362 19.4066 16.7474 19.899 15.5079 19.899Z" fill="white"/>
<path d="M23.1728 9.4648C24.1849 9.4648 25.0053 8.64437 25.0053 7.6323C25.0053 6.62024 24.1849 5.7998 23.1728 5.7998C22.1608 5.7998 21.3403 6.62024 21.3403 7.6323C21.3403 8.64437 22.1608 9.4648 23.1728 9.4648Z" fill="white"/>
</svg>
