<svg width="25" height="24" viewBox="0 0 25 24" fill="none" xmlns="http://www.w3.org/2000/svg">
<path d="M0.411995 7.97525H5.59339V24H0.411995V7.97525ZM3.00412 0C3.5984 2.59061e-07 4.17933 0.169424 4.67342 0.486838C5.1675 0.804252 5.55255 1.25539 5.77984 1.78319C6.00713 2.31099 6.06645 2.89173 5.95031 3.45194C5.83416 4.01216 5.54776 4.52667 5.12734 4.9304C4.70692 5.33412 4.17137 5.60892 3.58844 5.72003C3.00551 5.83114 2.40139 5.77356 1.85251 5.55459C1.30363 5.33561 0.834648 4.96507 0.504895 4.48985C0.175143 4.01462 -0.000564618 3.45607 1.36304e-06 2.88484C0.000759693 2.11948 0.317599 1.38572 0.880898 0.844783C1.4442 0.303849 2.20787 -3.47102e-07 3.00412 0ZM8.84356 7.97525H13.8104V10.1753H13.879C14.5714 8.91578 16.2594 7.58749 18.78 7.58749C24.0272 7.57649 25 10.8958 25 15.1997V24H19.8186V16.2035C19.8186 14.3472 19.7843 11.9574 17.1263 11.9574C14.4684 11.9574 14.0164 13.9814 14.0164 16.0825V24H8.84356V7.97525Z" fill="white"/>
</svg>
