<svg width="230" height="230" viewBox="0 0 230 230" fill="none" xmlns="http://www.w3.org/2000/svg">
<circle cx="115" cy="115" r="114.5" fill="white" stroke="#E6E6FF"/>
<path d="M95.0418 110.511C100.384 121.01 108.99 129.579 119.489 134.958L127.65 126.797C128.652 125.795 130.135 125.461 131.434 125.906C135.589 127.279 140.077 128.021 144.677 128.021C146.718 128.021 148.387 129.69 148.387 131.731V144.677C148.387 146.718 146.718 148.387 144.677 148.387C109.843 148.387 81.6128 120.156 81.6128 85.3225C81.6128 83.2821 83.2821 81.6128 85.3225 81.6128H98.3063C100.347 81.6128 102.016 83.2821 102.016 85.3225C102.016 89.9596 102.758 94.4112 104.131 98.566C104.539 99.8644 104.242 101.311 103.203 102.35L95.0418 110.511Z" fill="#0000FF"/>
</svg>
