<svg width="73" height="64" viewBox="0 0 73 64" fill="none" xmlns="http://www.w3.org/2000/svg">
<path fill-rule="evenodd" clip-rule="evenodd" d="M36.5921 0.658326C36.9531 0.658125 37.3098 0.726325 37.6378 0.858238C37.9658 0.990151 38.2573 1.18265 38.4921 1.42249L48.4921 11.6308C48.9235 12.0718 49.1371 12.6446 49.0859 13.2233C49.0346 13.802 48.7227 14.3392 48.2188 14.7167C47.7149 15.0942 47.0602 15.281 46.3988 15.2362C45.7375 15.1913 45.1235 14.9184 44.6921 14.4775L39.0921 8.76083V40.7625C39.0921 41.3427 38.8287 41.8991 38.3599 42.3093C37.891 42.7195 37.2552 42.95 36.5921 42.95C35.9291 42.95 35.2932 42.7195 34.8244 42.3093C34.3555 41.8991 34.0921 41.3427 34.0921 40.7625V8.75791L28.4921 14.4775C28.2785 14.6958 28.0178 14.8752 27.725 15.0054C27.4322 15.1355 27.1129 15.214 26.7854 15.2362C26.4579 15.2584 26.1286 15.2239 25.8164 15.1348C25.5041 15.0457 25.215 14.9036 24.9655 14.7167C24.7159 14.5297 24.511 14.3017 24.3622 14.0454C24.2134 13.7892 24.1238 13.5098 24.0984 13.2233C24.073 12.9367 24.1124 12.6486 24.2143 12.3754C24.3161 12.1021 24.4785 11.8492 24.6921 11.6308L34.6921 1.42249C34.927 1.18265 35.2184 0.990151 35.5464 0.858238C35.8744 0.726325 36.2312 0.658125 36.5921 0.658326ZM19.9121 21.0808C20.5752 21.0777 21.2125 21.3052 21.6838 21.7133C22.1551 22.1213 22.4219 22.6765 22.4255 23.2567C22.429 23.8368 22.169 24.3945 21.7027 24.8069C21.2363 25.2193 20.6018 25.4527 19.9388 25.4558C16.2955 25.4733 13.7121 25.555 11.7488 25.87C9.86212 26.1762 8.76546 26.6633 7.95546 27.3721C7.03212 28.18 6.43212 29.3146 6.10212 31.4554C5.76546 33.6575 5.75879 36.5771 5.75879 40.7625V43.6792C5.75879 47.8675 5.76546 50.7871 6.10212 52.9892C6.43212 55.13 7.03546 56.2617 7.95546 57.0725C8.87879 57.8775 10.1721 58.4025 12.6221 58.6912C15.1355 58.9888 18.4755 58.9917 23.2588 58.9917H49.9255C54.7088 58.9917 58.0455 58.9888 60.5655 58.6912C63.0121 58.4025 64.3055 57.8775 65.2288 57.0696C66.1521 56.2617 66.7521 55.13 67.0821 52.9892C67.4188 50.7871 67.4255 47.8675 67.4255 43.6792V40.7625C67.4255 36.5771 67.4188 33.6575 67.0821 31.4525C66.7521 29.3146 66.1488 28.18 65.2288 27.3721C64.4155 26.6633 63.3221 26.1762 61.4355 25.87C59.4721 25.555 56.8888 25.4733 53.2455 25.4558C52.9172 25.4543 52.5924 25.3962 52.2898 25.2849C51.9871 25.1735 51.7125 25.0111 51.4816 24.8069C51.2507 24.6027 51.068 24.3607 50.944 24.0947C50.82 23.8287 50.757 23.5439 50.7588 23.2567C50.7605 22.9694 50.8269 22.6852 50.9542 22.4204C51.0814 22.1556 51.2671 21.9153 51.5005 21.7133C51.7338 21.5112 52.0104 21.3514 52.3144 21.2429C52.6184 21.1344 52.9438 21.0793 53.2721 21.0808C56.8788 21.0983 59.8821 21.1742 62.3388 21.5679C64.8655 21.9762 67.0155 22.7492 68.7655 24.2804C70.7721 26.0333 71.6321 28.2471 72.0388 30.8721C72.4255 33.3979 72.4255 36.615 72.4255 40.6021V43.8396C72.4255 47.8296 72.4255 51.0438 72.0388 53.5725C71.6321 56.1975 70.7721 58.4083 68.7655 60.1642C66.7588 61.92 64.2321 62.6725 61.2321 63.0283C58.3421 63.3667 54.6655 63.3667 50.1088 63.3667H23.0755C18.5188 63.3667 14.8421 63.3667 11.9521 63.0283C8.95212 62.6754 6.42546 61.92 4.41879 60.1642C2.41212 58.4083 1.55212 56.1975 1.14879 53.5725C0.758789 51.0438 0.758789 47.8267 0.758789 43.8396V40.6021C0.758789 36.615 0.758789 33.3979 1.14879 30.8692C1.54879 28.2442 2.41546 26.0333 4.41879 24.2775C6.16879 22.7492 8.31879 21.9733 10.8455 21.5679C13.3021 21.1742 16.3055 21.0983 19.9121 21.0808Z" fill="#3333FF"/>
</svg>
